<mxfile host="app.diagrams.net" modified="2022-03-18T15:21:49.239Z" agent="5.0 (Macintosh; Intel Mac OS X 10_15_7) AppleWebKit/537.36 (KHTML, like Gecko) Chrome/99.0.4844.74 Safari/537.36" etag="2C_pIB0UxTbAYa_jaK9n" version="17.1.3" type="github">
  <diagram id="It3RlL4vFXfYDnx4bUP5" name="Page-1">
    <mxGraphModel dx="946" dy="509" grid="1" gridSize="10" guides="1" tooltips="1" connect="1" arrows="1" fold="1" page="1" pageScale="1" pageWidth="827" pageHeight="1169" math="0" shadow="0">
      <root>
        <mxCell id="0" />
        <mxCell id="1" parent="0" />
        <mxCell id="PAFotUUtU3vtHcfQXSfe-1" value="Proveedor" style="rounded=0;whiteSpace=wrap;html=1;" vertex="1" parent="1">
          <mxGeometry x="120" y="40" width="120" height="60" as="geometry" />
        </mxCell>
        <mxCell id="PAFotUUtU3vtHcfQXSfe-2" value="Cliente" style="rounded=0;whiteSpace=wrap;html=1;" vertex="1" parent="1">
          <mxGeometry x="560" y="40" width="120" height="60" as="geometry" />
        </mxCell>
        <mxCell id="PAFotUUtU3vtHcfQXSfe-3" value="Producto" style="rounded=0;whiteSpace=wrap;html=1;" vertex="1" parent="1">
          <mxGeometry x="120" y="210" width="120" height="60" as="geometry" />
        </mxCell>
        <mxCell id="PAFotUUtU3vtHcfQXSfe-4" value="RUT" style="ellipse;whiteSpace=wrap;html=1;aspect=fixed;" vertex="1" parent="1">
          <mxGeometry x="80" y="10" width="30" height="30" as="geometry" />
        </mxCell>
        <mxCell id="PAFotUUtU3vtHcfQXSfe-5" value="" style="endArrow=none;html=1;rounded=0;exitX=1;exitY=1;exitDx=0;exitDy=0;entryX=0;entryY=0.25;entryDx=0;entryDy=0;" edge="1" parent="1" source="PAFotUUtU3vtHcfQXSfe-4" target="PAFotUUtU3vtHcfQXSfe-1">
          <mxGeometry width="50" height="50" relative="1" as="geometry">
            <mxPoint x="390" y="280" as="sourcePoint" />
            <mxPoint x="440" y="230" as="targetPoint" />
          </mxGeometry>
        </mxCell>
        <mxCell id="PAFotUUtU3vtHcfQXSfe-6" value="RUT" style="ellipse;whiteSpace=wrap;html=1;aspect=fixed;" vertex="1" parent="1">
          <mxGeometry x="510" y="10" width="30" height="30" as="geometry" />
        </mxCell>
        <mxCell id="PAFotUUtU3vtHcfQXSfe-7" value="" style="endArrow=none;html=1;rounded=0;exitX=1;exitY=1;exitDx=0;exitDy=0;entryX=0;entryY=0.25;entryDx=0;entryDy=0;" edge="1" parent="1" source="PAFotUUtU3vtHcfQXSfe-6" target="PAFotUUtU3vtHcfQXSfe-2">
          <mxGeometry width="50" height="50" relative="1" as="geometry">
            <mxPoint x="539.9966017177982" y="29.996601717798185" as="sourcePoint" />
            <mxPoint x="554.39" y="49.39" as="targetPoint" />
          </mxGeometry>
        </mxCell>
        <mxCell id="PAFotUUtU3vtHcfQXSfe-8" value="Dir" style="ellipse;whiteSpace=wrap;html=1;aspect=fixed;" vertex="1" parent="1">
          <mxGeometry x="700" y="50" width="20" height="20" as="geometry" />
        </mxCell>
        <mxCell id="PAFotUUtU3vtHcfQXSfe-9" value="" style="endArrow=none;html=1;rounded=0;exitX=0;exitY=0.5;exitDx=0;exitDy=0;entryX=1;entryY=0.5;entryDx=0;entryDy=0;" edge="1" parent="1" source="PAFotUUtU3vtHcfQXSfe-8" target="PAFotUUtU3vtHcfQXSfe-2">
          <mxGeometry width="50" height="50" relative="1" as="geometry">
            <mxPoint x="380" y="270" as="sourcePoint" />
            <mxPoint x="430" y="220" as="targetPoint" />
          </mxGeometry>
        </mxCell>
        <mxCell id="PAFotUUtU3vtHcfQXSfe-10" value="" style="endArrow=none;html=1;rounded=0;exitX=1;exitY=0;exitDx=0;exitDy=0;entryX=0;entryY=1;entryDx=0;entryDy=0;" edge="1" parent="1" source="PAFotUUtU3vtHcfQXSfe-8" target="PAFotUUtU3vtHcfQXSfe-11">
          <mxGeometry width="50" height="50" relative="1" as="geometry">
            <mxPoint x="710" y="50" as="sourcePoint" />
            <mxPoint x="740" y="20" as="targetPoint" />
          </mxGeometry>
        </mxCell>
        <mxCell id="PAFotUUtU3vtHcfQXSfe-11" value="C/" style="ellipse;whiteSpace=wrap;html=1;aspect=fixed;" vertex="1" parent="1">
          <mxGeometry x="740" y="10" width="20" height="20" as="geometry" />
        </mxCell>
        <mxCell id="PAFotUUtU3vtHcfQXSfe-12" value="Nº" style="ellipse;whiteSpace=wrap;html=1;aspect=fixed;" vertex="1" parent="1">
          <mxGeometry x="750" y="40" width="20" height="20" as="geometry" />
        </mxCell>
        <mxCell id="PAFotUUtU3vtHcfQXSfe-13" value="Ciu" style="ellipse;whiteSpace=wrap;html=1;aspect=fixed;" vertex="1" parent="1">
          <mxGeometry x="750" y="70" width="20" height="20" as="geometry" />
        </mxCell>
        <mxCell id="PAFotUUtU3vtHcfQXSfe-14" value="" style="endArrow=none;html=1;rounded=0;entryX=0;entryY=0.5;entryDx=0;entryDy=0;exitX=1;exitY=0.5;exitDx=0;exitDy=0;" edge="1" parent="1" source="PAFotUUtU3vtHcfQXSfe-8" target="PAFotUUtU3vtHcfQXSfe-12">
          <mxGeometry width="50" height="50" relative="1" as="geometry">
            <mxPoint x="670" y="150" as="sourcePoint" />
            <mxPoint x="720" y="100" as="targetPoint" />
          </mxGeometry>
        </mxCell>
        <mxCell id="PAFotUUtU3vtHcfQXSfe-15" value="" style="endArrow=none;html=1;rounded=0;entryX=0;entryY=0.5;entryDx=0;entryDy=0;exitX=1;exitY=1;exitDx=0;exitDy=0;" edge="1" parent="1" source="PAFotUUtU3vtHcfQXSfe-8" target="PAFotUUtU3vtHcfQXSfe-13">
          <mxGeometry width="50" height="50" relative="1" as="geometry">
            <mxPoint x="380" y="270" as="sourcePoint" />
            <mxPoint x="430" y="220" as="targetPoint" />
          </mxGeometry>
        </mxCell>
        <mxCell id="PAFotUUtU3vtHcfQXSfe-17" value="Teléfono de contacto" style="rounded=0;whiteSpace=wrap;html=1;" vertex="1" parent="1">
          <mxGeometry x="740" y="195" width="80" height="40" as="geometry" />
        </mxCell>
        <mxCell id="PAFotUUtU3vtHcfQXSfe-28" value="Com" style="ellipse;whiteSpace=wrap;html=1;aspect=fixed;" vertex="1" parent="1">
          <mxGeometry x="732.93" y="92.93" width="20" height="20" as="geometry" />
        </mxCell>
        <mxCell id="PAFotUUtU3vtHcfQXSfe-29" value="" style="endArrow=none;html=1;rounded=0;entryX=0;entryY=0.5;entryDx=0;entryDy=0;exitX=0.5;exitY=1;exitDx=0;exitDy=0;" edge="1" parent="1" target="PAFotUUtU3vtHcfQXSfe-28" source="PAFotUUtU3vtHcfQXSfe-8">
          <mxGeometry width="50" height="50" relative="1" as="geometry">
            <mxPoint x="700.0010678118653" y="90.00106781186531" as="sourcePoint" />
            <mxPoint x="412.93" y="242.93" as="targetPoint" />
          </mxGeometry>
        </mxCell>
        <mxCell id="PAFotUUtU3vtHcfQXSfe-30" value="" style="edgeStyle=entityRelationEdgeStyle;fontSize=12;html=1;endArrow=ERzeroToMany;startArrow=none;rounded=0;exitX=0.5;exitY=1;exitDx=0;exitDy=0;entryX=0;entryY=0.75;entryDx=0;entryDy=0;" edge="1" parent="1" source="PAFotUUtU3vtHcfQXSfe-48" target="PAFotUUtU3vtHcfQXSfe-17">
          <mxGeometry width="100" height="100" relative="1" as="geometry">
            <mxPoint x="360" y="290" as="sourcePoint" />
            <mxPoint x="740" y="170" as="targetPoint" />
          </mxGeometry>
        </mxCell>
        <mxCell id="PAFotUUtU3vtHcfQXSfe-31" value="Cod" style="ellipse;whiteSpace=wrap;html=1;aspect=fixed;" vertex="1" parent="1">
          <mxGeometry x="60" y="200" width="30" height="30" as="geometry" />
        </mxCell>
        <mxCell id="PAFotUUtU3vtHcfQXSfe-32" value="" style="endArrow=none;html=1;rounded=0;exitX=1;exitY=1;exitDx=0;exitDy=0;entryX=0;entryY=0.5;entryDx=0;entryDy=0;" edge="1" parent="1" source="PAFotUUtU3vtHcfQXSfe-31" target="PAFotUUtU3vtHcfQXSfe-3">
          <mxGeometry width="50" height="50" relative="1" as="geometry">
            <mxPoint x="370" y="470" as="sourcePoint" />
            <mxPoint x="100" y="245" as="targetPoint" />
          </mxGeometry>
        </mxCell>
        <mxCell id="PAFotUUtU3vtHcfQXSfe-33" value="RUT" style="ellipse;whiteSpace=wrap;html=1;aspect=fixed;" vertex="1" parent="1">
          <mxGeometry x="50" y="250" width="30" height="30" as="geometry" />
        </mxCell>
        <mxCell id="PAFotUUtU3vtHcfQXSfe-34" value="" style="endArrow=none;html=1;rounded=0;exitX=1;exitY=1;exitDx=0;exitDy=0;entryX=0;entryY=0.75;entryDx=0;entryDy=0;" edge="1" parent="1" source="PAFotUUtU3vtHcfQXSfe-33" target="PAFotUUtU3vtHcfQXSfe-3">
          <mxGeometry width="50" height="50" relative="1" as="geometry">
            <mxPoint x="360" y="520" as="sourcePoint" />
            <mxPoint x="90" y="295" as="targetPoint" />
          </mxGeometry>
        </mxCell>
        <mxCell id="PAFotUUtU3vtHcfQXSfe-35" value="" style="edgeStyle=entityRelationEdgeStyle;fontSize=12;html=1;endArrow=ERoneToMany;startArrow=ERmandOne;rounded=0;entryX=1;entryY=0.5;entryDx=0;entryDy=0;exitX=1;exitY=0.5;exitDx=0;exitDy=0;" edge="1" parent="1" source="PAFotUUtU3vtHcfQXSfe-1" target="PAFotUUtU3vtHcfQXSfe-3">
          <mxGeometry width="100" height="100" relative="1" as="geometry">
            <mxPoint x="260" y="70" as="sourcePoint" />
            <mxPoint x="350" y="190" as="targetPoint" />
          </mxGeometry>
        </mxCell>
        <mxCell id="PAFotUUtU3vtHcfQXSfe-36" value="Categoria" style="rounded=0;whiteSpace=wrap;html=1;" vertex="1" parent="1">
          <mxGeometry x="120" y="310" width="120" height="60" as="geometry" />
        </mxCell>
        <mxCell id="PAFotUUtU3vtHcfQXSfe-37" value="ID" style="ellipse;whiteSpace=wrap;html=1;aspect=fixed;" vertex="1" parent="1">
          <mxGeometry x="50" y="325" width="30" height="30" as="geometry" />
        </mxCell>
        <mxCell id="PAFotUUtU3vtHcfQXSfe-38" value="" style="endArrow=none;html=1;rounded=0;exitX=1;exitY=1;exitDx=0;exitDy=0;entryX=0;entryY=0.5;entryDx=0;entryDy=0;" edge="1" parent="1" source="PAFotUUtU3vtHcfQXSfe-37" target="PAFotUUtU3vtHcfQXSfe-36">
          <mxGeometry width="50" height="50" relative="1" as="geometry">
            <mxPoint x="360" y="595" as="sourcePoint" />
            <mxPoint x="120" y="330" as="targetPoint" />
          </mxGeometry>
        </mxCell>
        <mxCell id="PAFotUUtU3vtHcfQXSfe-39" value="" style="edgeStyle=entityRelationEdgeStyle;fontSize=12;html=1;endArrow=ERzeroToMany;startArrow=ERmandOne;rounded=0;exitX=1;exitY=0.75;exitDx=0;exitDy=0;entryX=1;entryY=0.75;entryDx=0;entryDy=0;" edge="1" parent="1" source="PAFotUUtU3vtHcfQXSfe-36" target="PAFotUUtU3vtHcfQXSfe-3">
          <mxGeometry width="100" height="100" relative="1" as="geometry">
            <mxPoint x="340" y="355" as="sourcePoint" />
            <mxPoint x="440" y="255" as="targetPoint" />
          </mxGeometry>
        </mxCell>
        <mxCell id="PAFotUUtU3vtHcfQXSfe-40" value="Venta" style="rounded=0;whiteSpace=wrap;html=1;" vertex="1" parent="1">
          <mxGeometry x="484" y="200" width="110" height="55" as="geometry" />
        </mxCell>
        <mxCell id="PAFotUUtU3vtHcfQXSfe-41" value="ID" style="ellipse;whiteSpace=wrap;html=1;aspect=fixed;" vertex="1" parent="1">
          <mxGeometry x="414" y="210" width="30" height="30" as="geometry" />
        </mxCell>
        <mxCell id="PAFotUUtU3vtHcfQXSfe-42" value="" style="endArrow=none;html=1;rounded=0;exitX=1;exitY=1;exitDx=0;exitDy=0;entryX=0;entryY=0.75;entryDx=0;entryDy=0;" edge="1" parent="1" source="PAFotUUtU3vtHcfQXSfe-41" target="PAFotUUtU3vtHcfQXSfe-40">
          <mxGeometry width="50" height="50" relative="1" as="geometry">
            <mxPoint x="724" y="480" as="sourcePoint" />
            <mxPoint x="484" y="225" as="targetPoint" />
          </mxGeometry>
        </mxCell>
        <mxCell id="PAFotUUtU3vtHcfQXSfe-43" value="Fecha" style="ellipse;whiteSpace=wrap;html=1;aspect=fixed;" vertex="1" parent="1">
          <mxGeometry x="414" y="250" width="30" height="30" as="geometry" />
        </mxCell>
        <mxCell id="PAFotUUtU3vtHcfQXSfe-44" value="" style="endArrow=none;html=1;rounded=0;exitX=1;exitY=0.5;exitDx=0;exitDy=0;entryX=0;entryY=1;entryDx=0;entryDy=0;" edge="1" parent="1" source="PAFotUUtU3vtHcfQXSfe-43" target="PAFotUUtU3vtHcfQXSfe-40">
          <mxGeometry width="50" height="50" relative="1" as="geometry">
            <mxPoint x="724" y="520" as="sourcePoint" />
            <mxPoint x="484" y="265" as="targetPoint" />
          </mxGeometry>
        </mxCell>
        <mxCell id="PAFotUUtU3vtHcfQXSfe-45" value="Suministra" style="shape=rhombus;perimeter=rhombusPerimeter;whiteSpace=wrap;html=1;align=center;" vertex="1" parent="1">
          <mxGeometry x="230" y="140" width="80" height="40" as="geometry" />
        </mxCell>
        <mxCell id="PAFotUUtU3vtHcfQXSfe-46" value="Contiene" style="text;html=1;align=center;verticalAlign=middle;resizable=0;points=[];autosize=1;strokeColor=none;fillColor=none;" vertex="1" parent="1">
          <mxGeometry x="250" y="360" width="60" height="20" as="geometry" />
        </mxCell>
        <mxCell id="PAFotUUtU3vtHcfQXSfe-47" value="Pertenece" style="text;html=1;align=center;verticalAlign=middle;resizable=0;points=[];autosize=1;strokeColor=none;fillColor=none;" vertex="1" parent="1">
          <mxGeometry x="270" y="255" width="70" height="20" as="geometry" />
        </mxCell>
        <mxCell id="PAFotUUtU3vtHcfQXSfe-48" value="Tiene" style="shape=rhombus;perimeter=rhombusPerimeter;whiteSpace=wrap;html=1;align=center;" vertex="1" parent="1">
          <mxGeometry x="670" y="130" width="80" height="40" as="geometry" />
        </mxCell>
        <mxCell id="PAFotUUtU3vtHcfQXSfe-50" value="" style="edgeStyle=entityRelationEdgeStyle;fontSize=12;html=1;endArrow=none;startArrow=ERmandOne;rounded=0;exitX=1;exitY=0.75;exitDx=0;exitDy=0;entryX=0.5;entryY=0;entryDx=0;entryDy=0;" edge="1" parent="1" source="PAFotUUtU3vtHcfQXSfe-2" target="PAFotUUtU3vtHcfQXSfe-48">
          <mxGeometry width="100" height="100" relative="1" as="geometry">
            <mxPoint x="680" y="85" as="sourcePoint" />
            <mxPoint x="740" y="227.5" as="targetPoint" />
          </mxGeometry>
        </mxCell>
      </root>
    </mxGraphModel>
  </diagram>
</mxfile>
